# xmcd
#
# Track frame offsets: 
#        150
#        15353
#        31481
#        43217
#        56295
#        74251
#        87922
#        101002
#        113385
#        126215
#        139927
#        152145
#        172969
#        185108
#        199944
#        215206
#        227885
#        240721
#        253786
#        267656
#
# Disc length: 3767 seconds
#
# Revision: 1
# Processed by: cddbd v1.5.2PL0 Copyright (c) Steve Scherf et al.
# Submitted via: ExactAudioCopyFreeDBPlugin 1.0
#
DISCID=270eb514
DTITLE=Various Artist - Jazz and Swing CD 1 - Early Swing, 2009
DYEAR=2009
DGENRE=Jazz
TTITLE0=Louis Armstrong  - Mack The Knife
TTITLE1=Glen Miller  - In The Mood
TTITLE2=The Andrews Sisters  - Sing Sing Sing
TTITLE3=Duke Ellington  - Take The A Train
TTITLE4=Louis Prima and His Orchestra - Just A Gigolo
TTITLE5=Count Basie  - Jumping At The Woodside
TTITLE6=Dizzy Gillespie  - Caravan
TTITLE7=Bud Powell  - Somebody Loves Me
TTITLE8=Charlie Parker  - Laura
TTITLE9=Anita O'Day  - Let Me Off Uptown
TTITLE10=Louis Jourdan  - Caldonia Boogie
TTITLE11=Carmen Mc Rae  - November Girl
TTITLE12=Earl Bostic  - Flamingo
TTITLE13=Benny Carter  - Scandal In A Flat
TTITLE14=Errol Garner  - Honeysuckle Rose
TTITLE15=Charlie Christian  - Solo Flight
TTITLE16=Benny Goodman  - Stompin At The Savoy
TTITLE17=Oscar Peterson  - The Lady Is A Tramp
TTITLE18=Bobby Hackett  - What A Difference A Day Made
TTITLE19=Sidney Bechet  - Petite Fleur
EXTD=YEAR: 2009
EXTT0=
EXTT1=
EXTT2=
EXTT3=
EXTT4=
EXTT5=
EXTT6=
EXTT7=
EXTT8=
EXTT9=
EXTT10=
EXTT11=
EXTT12=
EXTT13=
EXTT14=
EXTT15=
EXTT16=
EXTT17=
EXTT18=
EXTT19=
PLAYORDER=
